<svg xmlns="http://www.w3.org/2000/svg" viewBox="0 9.470000267028809 145.8000030517578 36.37999725341797" data-asc="0.9052734375" width="145.8000030517578" height="36.37999725341797"><defs/><g fill="#ffffff"><g transform="translate(0, 0)"><path d="M0 45.26L13.75 9.47L18.85 9.47L33.50 45.26L28.10 45.26L23.93 34.42L8.96 34.42L5.03 45.26L0 45.26M10.33 30.57L22.46 30.57L18.73 20.65Q17.02 16.14 16.19 13.23Q15.50 16.67 14.26 20.07L10.33 30.57ZM36.62 45.26L36.62 9.47L41.02 9.47L41.02 45.26L36.62 45.26ZM47.85 14.53L47.85 9.47L52.25 9.47L52.25 14.53L47.85 14.53M47.85 45.26L47.85 19.34L52.25 19.34L52.25 45.26L47.85 45.26ZM57.18 37.52L61.52 36.84Q61.89 39.45 63.56 40.84Q65.23 42.24 68.24 42.24Q71.26 42.24 72.73 41.00Q74.19 39.77 74.19 38.11Q74.19 36.62 72.90 35.77Q72.00 35.18 68.41 34.28Q63.57 33.06 61.71 32.17Q59.84 31.27 58.87 29.70Q57.91 28.13 57.91 26.22Q57.91 24.49 58.70 23.01Q59.50 21.53 60.86 20.56Q61.89 19.80 63.66 19.27Q65.43 18.75 67.46 18.75Q70.51 18.75 72.81 19.63Q75.12 20.51 76.22 22.01Q77.32 23.51 77.73 26.03L73.44 26.61Q73.14 24.61 71.74 23.49Q70.34 22.36 67.77 22.36Q64.75 22.36 63.45 23.36Q62.16 24.37 62.16 25.71Q62.16 26.56 62.70 27.25Q63.23 27.95 64.38 28.42Q65.04 28.66 68.26 29.54Q72.92 30.79 74.77 31.58Q76.61 32.37 77.66 33.89Q78.71 35.40 78.71 37.65Q78.71 39.84 77.43 41.78Q76.15 43.73 73.73 44.79Q71.31 45.85 68.26 45.85Q63.21 45.85 60.56 43.75Q57.91 41.65 57.18 37.52ZM83.94 45.26L83.94 9.47L88.33 9.47L88.33 22.31Q91.41 18.75 96.09 18.75Q98.97 18.75 101.10 19.89Q103.22 21.02 104.14 23.02Q105.05 25.02 105.05 28.83L105.05 45.26L100.66 45.26L100.66 28.83Q100.66 25.54 99.23 24.04Q97.80 22.53 95.19 22.53Q93.24 22.53 91.52 23.55Q89.79 24.56 89.06 26.29Q88.33 28.03 88.33 31.08L88.33 45.26L83.94 45.26ZM128.66 42.07Q126.22 44.14 123.96 45.00Q121.70 45.85 119.12 45.85Q114.84 45.85 112.55 43.76Q110.25 41.67 110.25 38.43Q110.25 36.52 111.12 34.95Q111.99 33.37 113.39 32.42Q114.79 31.47 116.55 30.98Q117.85 30.64 120.46 30.32Q125.78 29.69 128.30 28.81Q128.32 27.91 128.32 27.66Q128.32 24.98 127.08 23.88Q125.39 22.39 122.07 22.39Q118.97 22.39 117.49 23.47Q116.02 24.56 115.31 27.32L111.01 26.73Q111.60 23.97 112.94 22.28Q114.28 20.58 116.82 19.67Q119.36 18.75 122.71 18.75Q126.03 18.75 128.10 19.53Q130.18 20.31 131.15 21.50Q132.13 22.68 132.52 24.49Q132.74 25.61 132.74 28.54L132.74 34.40Q132.74 40.53 133.02 42.15Q133.30 43.77 134.13 45.26L129.54 45.26Q128.86 43.90 128.66 42.07M128.30 32.25Q125.90 33.23 121.12 33.91Q118.41 34.30 117.29 34.79Q116.16 35.28 115.55 36.22Q114.94 37.16 114.94 38.31Q114.94 40.06 116.27 41.24Q117.60 42.41 120.17 42.41Q122.71 42.41 124.68 41.30Q126.66 40.19 127.59 38.26Q128.30 36.77 128.30 33.86L128.30 32.25ZM140.80 45.26L140.80 40.26L145.80 40.26L145.80 45.26L140.80 45.26Z"/></g></g></svg>